<svg xmlns="http://www.w3.org/2000/svg" viewBox="0 0 128 128">
  <defs>
    <filter id="shadow" x="-20%" y="-20%" width="140%" height="140%">
      <feDropShadow dx="2" dy="2" stdDeviation="2" flood-color="#000000" flood-opacity="0.3"/>
    </filter>
  </defs>
  <rect x="24" y="20" width="80" height="92" rx="10" ry="10" fill="#ffffff" filter="url(#shadow)" />
  <path d="M24 30C24 24.477 28.477 20 34 20H94C99.523 20 104 24.477 104 30V48H24V30Z" fill="#007acc"/>
  <rect x="34" y="58" width="16" height="16" rx="2" fill="#cccccc"/>
  <rect x="56" y="58" width="16" height="16" rx="2" fill="#cccccc"/>
  <rect x="78" y="58" width="16" height="16" rx="2" fill="#cccccc"/>
  <rect x="34" y="80" width="16" height="16" rx="2" fill="#cccccc"/>
  <rect x="56" y="80" width="16" height="16" rx="2" fill="#cccccc"/>
  <g transform="translate(68, 70)">
     <circle cx="28" cy="28" r="22" fill="#252526" stroke="#ffffff" stroke-width="3"/>
     <path d="M18 38 L14 42 L24 42 Z" fill="#D4D4D4"/>
     <path d="M18 38 L32 24 L38 30 L24 44 L18 38" fill="#007acc"/>
     <rect x="30" y="22" width="10" height="10" transform="rotate(45 35 27)" fill="#D4D4D4"/>
  </g>
</svg>
